/* XPM */
static const char *zoomout_xpm[] = {
/* columns rows colors chars-per-pixel */
"16 16 117 2 ",
"   c #007000",
".  c #007200",
"X  c #007600",
"o  c #007B00",
"O  c #017E01",
"+  c #037C03",
"@  c #275F3A",
"#  c #237424",
"$  c #287829",
"%  c #2F7C2F",
"&  c #327E33",
"*  c #326545",
"=  c #366B49",
"-  c #396B4B",
";  c #447B52",
":  c #447A53",
">  c #447D50",
",  c #447955",
"<  c #487B59",
"1  c #038003",
"2  c #038203",
"3  c #058305",
"4  c #058605",
"5  c #078807",
"6  c #078A07",
"7  c #098009",
"8  c #098309",
"9  c #0A830A",
"0  c #0B870B",
"q  c #098B09",
"w  c #098E09",
"e  c #0B8F0B",
"r  c #0C880C",
"t  c #0E8B0E",
"y  c #0E8C0E",
"u  c #049404",
"i  c #069506",
"p  c #0B920B",
"a  c #0D930D",
"s  c #0E960E",
"d  c #0F970F",
"f  c #0D980D",
"g  c #108E10",
"h  c #129212",
"j  c #149614",
"k  c #169A16",
"l  c #278327",
"z  c #278827",
"x  c #278927",
"c  c #298429",
"v  c #33AB33",
"b  c #34AC34",
"n  c #3AAE3A",
"m  c #3BAE3B",
"M  c #44814B",
"N  c #44834A",
"B  c #448548",
"V  c #448648",
"C  c #44804D",
"Z  c #44804E",
"A  c #47894A",
"S  c #5C905F",
"D  c #5C925F",
"F  c #5E8767",
"G  c #5C8B63",
"H  c #5C8D61",
"J  c #5C8E61",
"K  c #5C8A65",
"L  c #5C8966",
"P  c #5C9060",
"I  c #5E9560",
"U  c #628A6D",
"Y  c #629863",
"T  c #639D64",
"R  c #649F66",
"E  c #679F68",
"W  c #72947F",
"Q  c #69A06A",
"!  c #769582",
"~  c #759682",
"^  c #789784",
"/  c #789885",
"(  c #8FC58F",
")  c #95C995",
"_  c #96CA95",
"`  c #97CC96",
"'  c #97CE97",
"]  c #98CF98",
"[  c #9BCC9A",
"{  c #96D396",
"}  c #9AD199",
"|  c #9AD39A",
" . c #9CD49C",
".. c #A1CFA0",
"X. c #A3CCA2",
"o. c #A1D1A0",
"O. c #A2D3A1",
"+. c #A3D5A2",
"@. c #A4D5A3",
"#. c #A5D7A4",
"$. c #A2D9A1",
"%. c #A6D8A5",
"&. c #A7DAA6",
"*. c #ADD3AC",
"=. c #ABDDAB",
"-. c #B5E2B5",
";. c #D0E3D1",
":. c #D8E3DD",
">. c #DDE9DE",
",. c #E6ECE9",
"<. c #EBF7EA",
"1. c #ECF8EB",
"2. c #F8FFF8",
"3. c #F9FFF9",
"4. c #FEFFFD",
"5. c white",
"6. c None",
/* pixels */
"6.6.6.6.6.6.6.6.6.6.6.6.6.6.6.6.",
"6.6.6.6.6.6.6.6.6.6.6.6.6.6.6.6.",
"6.6.6.6.6.6.6.6.6.6.6.6.6.6.6.6.",
"6.# A V V M M C C > > , , < @ 6.",
"$ ;.5.5.5.5.5.5.5.5.5.5.5.5.:.* ",
"T 5.-.$.%.%.#.@.+.o.o.o.[ *.5.W ",
"Q 2.b i j p p w 5 3 2 + . c 1./ ",
"E 2.m f k j h y t 0 7 7 X z 1.! ",
"R 2.m f k h h g y t 0 + X z 1.! ",
"Q 2.v u f p p 5 4 2 + o . c <.^ ",
"R 5.=.{  .| } ] ` ` ) ) ( X.5.! ",
"% >.5.5.5.5.5.5.5.5.5.5.5.5.,.- ",
"6.& Y I D D P G G G L L F U = 6.",
"6.6.6.6.6.6.6.6.6.6.6.6.6.6.6.6.",
"6.6.6.6.6.6.6.6.6.6.6.6.6.6.6.6.",
"6.6.6.6.6.6.6.6.6.6.6.6.6.6.6.6."
};
