/* XPM */
static const char *zoomin_xpm[] = {
/* columns rows colors chars-per-pixel */
"16 16 174 2 ",
"   c #06431C",
".  c #064E19",
"X  c #007000",
"o  c #007300",
"O  c #017A01",
"+  c #027C02",
"@  c #047F04",
"#  c #3D7F43",
"$  c #3F7354",
"%  c #427A4F",
"&  c #487D56",
"*  c #4B785C",
"=  c #4C7C5F",
"-  c #517C61",
";  c #008100",
":  c #008200",
">  c #008600",
",  c #058005",
"<  c #078707",
"1  c #088708",
"2  c #088B08",
"3  c #098C09",
"4  c #0A8C0A",
"5  c #0F890F",
"6  c #059505",
"7  c #069506",
"8  c #0C920C",
"9  c #0E930E",
"0  c #0F970F",
"q  c #108910",
"w  c #138A13",
"e  c #108C10",
"r  c #118C11",
"t  c #128D12",
"y  c #138D13",
"u  c #138F13",
"i  c #148B14",
"p  c #139013",
"a  c #109710",
"s  c #159115",
"d  c #149314",
"f  c #159315",
"g  c #1A941A",
"h  c #1B951B",
"j  c #238722",
"k  c #288328",
"l  c #288528",
"z  c #2D8C2D",
"x  c #269026",
"c  c #279027",
"v  c #269326",
"b  c #259425",
"n  c #279427",
"m  c #249824",
"M  c #299129",
"N  c #2A962A",
"B  c #2C912C",
"V  c #2D982D",
"C  c #2D9C2D",
"Z  c #3C853E",
"A  c #319631",
"S  c #369536",
"D  c #2AA52A",
"F  c #30A330",
"G  c #34A034",
"H  c #35A034",
"J  c #36A236",
"K  c #37A337",
"L  c #34A834",
"P  c #36AA36",
"I  c #34AC34",
"U  c #35AC35",
"Y  c #39A739",
"T  c #3BA53B",
"R  c #3FAC3F",
"E  c #3D8042",
"W  c #408741",
"Q  c #428345",
"!  c #458A46",
"~  c #49874F",
"^  c #478C48",
"/  c #4B964A",
"(  c #4F835B",
")  c #4E805C",
"_  c #549C54",
"`  c #58935E",
"'  c #58945F",
"]  c #5C945E",
"[  c #4AA14A",
"{  c #52A452",
"}  c #56AE56",
"|  c #54B954",
" . c #5DB25D",
".. c #5DBC5D",
"X. c #5D8768",
"o. c #67946F",
"O. c #68966E",
"+. c #639E68",
"@. c #659D6D",
"#. c #669E6D",
"$. c #6A996E",
"%. c #639076",
"&. c #669275",
"*. c #679375",
"=. c #6B9673",
"-. c #6F967C",
";. c #769F7A",
":. c #67A068",
">. c #68A069",
",. c #6BA36C",
"<. c #6CA36D",
"1. c #6FA174",
"2. c #76A07A",
"3. c #79A37B",
"4. c #78AA7C",
"5. c #769582",
"6. c #779583",
"7. c #739C82",
"8. c #759E82",
"9. c #7A9986",
"0. c #7B9986",
"q. c #799E88",
"w. c #7AA080",
"e. c #9FBFA2",
"r. c #A8BFB1",
"t. c #ADC9B0",
"y. c #B5C8BC",
"u. c #C8E3C8",
"i. c #D0E7D1",
"p. c #D4ECD4",
"a. c #DDF0DD",
"s. c #E8F5E7",
"d. c #E8F5E8",
"f. c #E9F7E9",
"g. c #EAF6E9",
"h. c #EBF6EA",
"j. c #EAF8E9",
"k. c #EDF8EB",
"l. c #ECFAEB",
"z. c #ECFBEB",
"x. c #EFFAED",
"c. c #EFF9EE",
"v. c #EFFDEE",
"b. c #F0F9EF",
"n. c #F0FBEF",
"m. c #F1F6F3",
"M. c #F0F9F0",
"N. c #F2FAF2",
"B. c #F3FBF2",
"V. c #F4FDF2",
"C. c #F3F8F4",
"Z. c #F6FEF5",
"A. c #F6FDF6",
"S. c #F7FDF6",
"D. c #F6FEF6",
"F. c #F7FFF6",
"G. c #F8FAF9",
"H. c #F9FBF9",
"J. c #F9FAFB",
"K. c #FAFAFB",
"L. c #FAFDF9",
"P. c #F9FEF8",
"I. c #F9FFF8",
"U. c #FAFFF9",
"Y. c #FAFFFA",
"T. c #FBFFFA",
"R. c #FBFFFB",
"E. c #FDFFFB",
"W. c #FCFFFC",
"Q. c #FDFFFC",
"!. c #FDFFFD",
"~. c #FFFFFE",
"^. c white",
"/. c None",
/* pixels */
"/././././.# $.O.O.=.% /././././.",
"/./././.# C.W.D.I.I.J.& /./././.",
"/./././.#.W...I P | D.7././././.",
"/./././.` I.P 6 6 D v.&././././.",
"/.Z +.] e.E.R 0 a P M.r.X.%.$ /.",
"W C.W.I.D.a.Y 8 8 F p.F.I.E.J.* ",
",.W. .G T K h s f h G T G } D.0.",
">.D.C > 2 2 u s s p 4 2 > m z.6.",
"+.A.V : 1 1 q i t t 1 < : m v.6.",
"<.W.{ v N n i q q w v N v / V.0.",
"! J.b.g.s.i.A @ , M u.s.j.c.W.- ",
"/.^ 4.1.t.I.S O + B c.y.-.q.=   ",
"/./././.' I.z o o j c.*././././.",
"/./././.#.W._ k l / B.8././././.",
"/./././.Q J.M.g.h.b.W.) /./././.",
"/././././.~ 3.2.;.w.( . /./././."
};
